<svg width="10" height="8" viewBox="0 0 10 8" fill="none" xmlns="http://www.w3.org/2000/svg">
<g clip-path="url(#clip0_1388_146)">
<path d="M5.44141 0.167886L8.56641 3.02503C8.68945 3.13574 8.75 3.28217 8.75 3.4286C8.75 3.57503 8.68896 3.7211 8.56689 3.83253C8.32275 4.05574 7.92725 4.05574 7.68311 3.83253L5.625 1.95003L5.625 7.4286C5.625 7.74414 5.3457 8 5 8C4.6543 8 4.375 7.74414 4.375 7.4286L4.375 1.95003L2.31641 3.83217C2.07227 4.05539 1.67676 4.05539 1.43262 3.83217C1.18848 3.60896 1.18848 3.24735 1.43262 3.02414L4.55762 0.166993C4.80273 -0.0553285 5.19727 -0.0553285 5.44141 0.167886Z" fill="#EA4237"/>
</g>
<defs>
<clipPath id="clip0_1388_146">
<rect width="8" height="10" fill="white" transform="translate(0 8) rotate(-90)"/>
</clipPath>
</defs>
</svg>
