<svg width="10" height="8" viewBox="0 0 10 8" fill="none" xmlns="http://www.w3.org/2000/svg">
<g clip-path="url(#clip0_1388_144)">
<path d="M5.44141 7.83211L8.56641 4.97497C8.68945 4.86426 8.75 4.71783 8.75 4.5714C8.75 4.42497 8.68896 4.2789 8.56689 4.16747C8.32275 3.94426 7.92725 3.94426 7.68311 4.16747L5.625 6.04997L5.625 0.5714C5.625 0.255864 5.3457 1.7905e-07 5 1.63939e-07C4.6543 1.48828e-07 4.375 0.255864 4.375 0.5714L4.375 6.04997L2.31641 4.16783C2.07227 3.94461 1.67676 3.94461 1.43262 4.16783C1.18848 4.39104 1.18848 4.75265 1.43262 4.97586L4.55762 7.83301C4.80273 8.05533 5.19727 8.05533 5.44141 7.83211Z" fill="#16CC66"/>
</g>
<defs>
<clipPath id="clip0_1388_144">
<rect width="8" height="10" fill="white" transform="matrix(-4.37114e-08 1 1 4.37114e-08 0 0)"/>
</clipPath>
</defs>
</svg>
