<svg width="20" height="22" viewBox="0 0 20 22" fill="none" xmlns="http://www.w3.org/2000/svg">
<path d="M20.0002 11C20.0002 10.6219 19.6699 10.3125 19.2591 10.3125H2.41584L8.69709 3.89726C8.97196 3.61663 8.94955 3.1814 8.64718 2.9266C8.50468 2.81015 8.32611 2.75 8.14754 2.75C7.94642 2.75 7.74535 2.82519 7.59933 2.97558L0.193078 10.5381C-0.0637081 10.7999 -0.0637081 11.2002 0.193078 11.4619L7.59933 19.0244C7.87566 19.3064 8.34441 19.3252 8.6462 19.0714C8.94857 18.8163 8.97098 18.3813 8.69611 18.1008L2.41584 11.6875H19.2596C19.6699 11.6875 20.0002 11.3781 20.0002 11Z" fill="white"/>
</svg>
