<svg width="20" height="22" viewBox="0 0 20 22" fill="none" xmlns="http://www.w3.org/2000/svg">
<path d="M-0.000213623 11C-0.000213623 10.6219 0.330143 10.3125 0.740858 10.3125H17.5842L11.3029 3.89726C11.028 3.61663 11.0505 3.1814 11.3528 2.9266C11.4953 2.81015 11.6739 2.75 11.8525 2.75C12.0536 2.75 12.2546 2.82519 12.4007 2.97558L19.8069 10.5381C20.0637 10.7999 20.0637 11.2002 19.8069 11.4619L12.4007 19.0244C12.1243 19.3064 11.6556 19.3252 11.3538 19.0714C11.0514 18.8163 11.029 18.3813 11.3039 18.1008L17.5842 11.6875H0.740412C0.330143 11.6875 -0.000213623 11.3781 -0.000213623 11Z" fill="white"/>
</svg>
