<svg width="7" height="12" viewBox="0 0 7 12" fill="none" xmlns="http://www.w3.org/2000/svg">
<g clip-path="url(#clip0_477_946)">
<path d="M0.875 9.95588L0.875 2.04238C0.87503 1.90231 0.916589 1.76539 0.994423 1.64893C1.07226 1.53247 1.18287 1.44171 1.31229 1.38811C1.4417 1.33451 1.5841 1.32048 1.72148 1.3478C1.85886 1.37512 1.98506 1.44256 2.08412 1.54159L6.04087 5.49834C6.17366 5.63117 6.24826 5.81131 6.24826 5.99913C6.24826 6.18695 6.17366 6.36709 6.04087 6.49992L2.08412 10.4567C1.98506 10.5557 1.85886 10.6231 1.72148 10.6505C1.5841 10.6778 1.4417 10.6638 1.31229 10.6102C1.18287 10.5566 1.07226 10.4658 0.994423 10.3493C0.916589 10.2329 0.87503 10.096 0.875 9.95588Z" fill="white"/>
</g>
<defs>
<clipPath id="clip0_477_946">
<rect width="11" height="6" fill="white" transform="translate(0.5 11.5) rotate(-90)"/>
</clipPath>
</defs>
</svg>
