<svg width="19" height="21" viewBox="0 0 19 21" fill="none" xmlns="http://www.w3.org/2000/svg">
<g clip-path="url(#clip0_375_217)">
<path d="M15.446 3.43716C14.4111 2.43638 12.7317 2.43638 11.6968 3.43716L3.89328 10.984C2.10779 12.7108 2.10779 15.5081 3.89328 17.2348C5.67877 18.9616 8.57118 18.9616 10.3567 17.2348L16.8031 11.0004C17.2654 10.5534 18.0203 10.5534 18.4826 11.0004C18.9448 11.4475 18.9448 12.1776 18.4826 12.6247L12.0361 18.859C9.32185 21.484 4.9281 21.484 2.21381 18.859C-0.500471 16.234 -0.500471 11.9848 2.21381 9.35981L10.0174 1.81294C11.981 -0.086084 15.1618 -0.086084 17.1254 1.81294C19.089 3.71196 19.089 6.78813 17.1254 8.68716L9.66114 15.9059C8.44819 17.079 6.48033 17.079 5.26739 15.9059C4.05444 14.7329 4.05444 12.8297 5.26739 11.6567L11.3745 5.75044C11.8368 5.30337 12.5917 5.30337 13.054 5.75044C13.5163 6.19751 13.5163 6.92759 13.054 7.37466L6.94685 13.2809C6.6627 13.5557 6.6627 14.0069 6.94685 14.2817C7.231 14.5565 7.69752 14.5565 7.98167 14.2817L15.446 7.06294C16.4808 6.06216 16.4808 4.43794 15.446 3.43716Z" fill="#F79300"/>
</g>
<defs>
<clipPath id="clip0_375_217">
<rect width="19" height="21" fill="white"/>
</clipPath>
</defs>
</svg>
