<svg width="7" height="8" viewBox="0 0 7 8" fill="none" xmlns="http://www.w3.org/2000/svg">
<g clip-path="url(#clip0_1040_2578)">
<path d="M6.79437 6.55564C7.06781 6.85867 7.06781 7.34958 6.79437 7.65261C6.65875 7.80412 6.47937 7.87928 6.3 7.87928C6.12063 7.87928 5.94169 7.80352 5.80519 7.652L3.5 5.09867L1.19503 7.6514C1.05831 7.80412 0.879156 7.87928 0.7 7.87928C0.520844 7.87928 0.341906 7.80412 0.205078 7.6514C-0.0683594 7.34837 -0.0683594 6.85746 0.205078 6.55443L2.5107 3.99928L0.205078 1.44534C-0.0683594 1.14231 -0.0683594 0.651397 0.205078 0.348366C0.478516 0.0453362 0.921484 0.0453362 1.19492 0.348366L3.5 2.90473L5.80562 0.349579C6.07906 0.0465484 6.52203 0.0465484 6.79547 0.349579C7.06891 0.652609 7.06891 1.14352 6.79547 1.44655L4.48984 4.0017L6.79437 6.55564Z" fill="#EA4237"/>
</g>
<defs>
<clipPath id="clip0_1040_2578">
<rect width="7" height="8" fill="white"/>
</clipPath>
</defs>
</svg>
