<svg width="135" height="20" viewBox="0 0 135 20" fill="none" xmlns="http://www.w3.org/2000/svg">
<g clip-path="url(#clip0_300_1221)">
<path d="M28.9181 4.16667H28.6265V3.875C28.6265 3.64294 28.5343 3.42038 28.3702 3.25628C28.2061 3.09219 27.9835 3 27.7515 3C27.5194 3 27.2968 3.09219 27.1327 3.25628C26.9687 3.42038 26.8765 3.64294 26.8765 3.875V4.16667H23.3765V3.875C23.3765 3.64294 23.2843 3.42038 23.1202 3.25628C22.9561 3.09219 22.7335 3 22.5015 3C22.2694 3 22.0468 3.09219 21.8827 3.25628C21.7187 3.42038 21.6265 3.64294 21.6265 3.875V4.16667H21.3348C20.4839 4.16667 19.6678 4.50469 19.0662 5.10637C18.4645 5.70805 18.1265 6.5241 18.1265 7.375V13.7917C18.1265 14.6426 18.4645 15.4586 19.0662 16.0603C19.6678 16.662 20.4839 17 21.3348 17H28.9181C29.769 17 30.5851 16.662 31.1868 16.0603C31.7884 15.4586 32.1265 14.6426 32.1265 13.7917V7.375C32.1265 6.5241 31.7884 5.70805 31.1868 5.10637C30.5851 4.50469 29.769 4.16667 28.9181 4.16667ZM28.9181 15.25H21.3348C20.948 15.25 20.5771 15.0964 20.3036 14.8229C20.0301 14.5494 19.8765 14.1784 19.8765 13.7917V8.83333H30.3765V13.7917C30.3765 14.1784 30.2228 14.5494 29.9493 14.8229C29.6758 15.0964 29.3049 15.25 28.9181 15.25Z" fill="white"/>
</g>
<path d="M44.9365 8.87C44.9365 9.11 44.8865 9.34667 44.7865 9.58C44.6865 9.80667 44.5565 10.03 44.3965 10.25C44.2431 10.4633 44.0665 10.6733 43.8665 10.88C43.6665 11.08 43.4665 11.2767 43.2665 11.47C43.1598 11.57 43.0398 11.69 42.9065 11.83C42.7731 11.97 42.6465 12.11 42.5265 12.25C42.4065 12.39 42.3031 12.5267 42.2165 12.66C42.1298 12.7867 42.0831 12.8933 42.0765 12.98H45.1565V14H40.7465C40.7398 13.9467 40.7365 13.8833 40.7365 13.81C40.7365 13.73 40.7365 13.67 40.7365 13.63C40.7365 13.31 40.7865 13.0167 40.8865 12.75C40.9931 12.4767 41.1298 12.2233 41.2965 11.99C41.4631 11.7567 41.6498 11.5367 41.8565 11.33C42.0631 11.1233 42.2698 10.92 42.4765 10.72C42.6365 10.5667 42.7898 10.4167 42.9365 10.27C43.0831 10.1233 43.2098 9.98 43.3165 9.84C43.4298 9.69333 43.5198 9.54667 43.5865 9.4C43.6531 9.24667 43.6865 9.09 43.6865 8.93C43.6865 8.58333 43.5865 8.33667 43.3865 8.19C43.1865 8.04333 42.9431 7.97 42.6565 7.97C42.4698 7.97 42.2965 7.99667 42.1365 8.05C41.9765 8.10333 41.8331 8.16667 41.7065 8.24C41.5865 8.31333 41.4798 8.39 41.3865 8.47C41.2931 8.54333 41.2231 8.60333 41.1765 8.65L40.5765 7.8C40.8565 7.53333 41.1831 7.32 41.5565 7.16C41.9365 6.99333 42.3431 6.91 42.7765 6.91C43.5165 6.91 44.0598 7.08667 44.4065 7.44C44.7598 7.78667 44.9365 8.26333 44.9365 8.87ZM46.7101 8.51C47.0967 8.35667 47.4834 8.16 47.8701 7.92C48.2634 7.68 48.6101 7.39667 48.9101 7.07H49.7601V14H48.5501V8.69C48.3701 8.83 48.1434 8.96667 47.8701 9.1C47.5967 9.23333 47.3334 9.34333 47.0801 9.43L46.7101 8.51ZM54.0576 10.59H56.7476V11.7H54.0576V10.59ZM64.1259 8.87C64.1259 9.11 64.0759 9.34667 63.9759 9.58C63.8759 9.80667 63.7459 10.03 63.5859 10.25C63.4326 10.4633 63.2559 10.6733 63.0559 10.88C62.8559 11.08 62.6559 11.2767 62.4559 11.47C62.3493 11.57 62.2293 11.69 62.0959 11.83C61.9626 11.97 61.8359 12.11 61.7159 12.25C61.5959 12.39 61.4926 12.5267 61.4059 12.66C61.3193 12.7867 61.2726 12.8933 61.2659 12.98H64.3459V14H59.9359C59.9293 13.9467 59.9259 13.8833 59.9259 13.81C59.9259 13.73 59.9259 13.67 59.9259 13.63C59.9259 13.31 59.9759 13.0167 60.0759 12.75C60.1826 12.4767 60.3193 12.2233 60.4859 11.99C60.6526 11.7567 60.8393 11.5367 61.0459 11.33C61.2526 11.1233 61.4593 10.92 61.6659 10.72C61.8259 10.5667 61.9793 10.4167 62.1259 10.27C62.2726 10.1233 62.3993 9.98 62.5059 9.84C62.6193 9.69333 62.7093 9.54667 62.7759 9.4C62.8426 9.24667 62.8759 9.09 62.8759 8.93C62.8759 8.58333 62.7759 8.33667 62.5759 8.19C62.3759 8.04333 62.1326 7.97 61.8459 7.97C61.6593 7.97 61.4859 7.99667 61.3259 8.05C61.1659 8.10333 61.0226 8.16667 60.8959 8.24C60.7759 8.31333 60.6693 8.39 60.5759 8.47C60.4826 8.54333 60.4126 8.60333 60.3659 8.65L59.7659 7.8C60.0459 7.53333 60.3726 7.32 60.7459 7.16C61.1259 6.99333 61.5326 6.91 61.9659 6.91C62.7059 6.91 63.2493 7.08667 63.5959 7.44C63.9493 7.78667 64.1259 8.26333 64.1259 8.87ZM70.1995 12.14C70.1995 12.4267 70.1495 12.6933 70.0495 12.94C69.9495 13.1867 69.7995 13.4 69.5995 13.58C69.3995 13.76 69.1495 13.9 68.8495 14C68.5562 14.1 68.2162 14.15 67.8295 14.15C67.3762 14.15 66.9995 14.0867 66.6995 13.96C66.3995 13.8333 66.1595 13.6733 65.9795 13.48C65.7995 13.2867 65.6695 13.08 65.5895 12.86C65.5162 12.6333 65.4795 12.42 65.4795 12.22C65.4795 12.02 65.5062 11.8367 65.5595 11.67C65.6195 11.4967 65.6995 11.34 65.7995 11.2C65.8995 11.0533 66.0128 10.92 66.1395 10.8C66.2662 10.68 66.3995 10.5733 66.5395 10.48C66.2328 10.2667 66.0028 10.0367 65.8495 9.79C65.7028 9.53667 65.6295 9.23 65.6295 8.87C65.6295 8.61 65.6795 8.36333 65.7795 8.13C65.8862 7.89 66.0362 7.68 66.2295 7.5C66.4228 7.32 66.6562 7.17667 66.9295 7.07C67.2028 6.96333 67.5062 6.91 67.8395 6.91C68.2328 6.91 68.5662 6.96667 68.8395 7.08C69.1195 7.19333 69.3462 7.34 69.5195 7.52C69.6995 7.7 69.8295 7.9 69.9095 8.12C69.9895 8.34 70.0295 8.55333 70.0295 8.76C70.0295 9.12667 69.9295 9.45333 69.7295 9.74C69.5295 10.02 69.2995 10.2433 69.0395 10.41C69.4328 10.6233 69.7228 10.87 69.9095 11.15C70.1028 11.43 70.1995 11.76 70.1995 12.14ZM66.6695 12.2C66.6695 12.3 66.6895 12.4067 66.7295 12.52C66.7695 12.6333 66.8362 12.7367 66.9295 12.83C67.0228 12.9233 67.1428 13.0033 67.2895 13.07C67.4362 13.13 67.6195 13.16 67.8395 13.16C68.0395 13.16 68.2128 13.1333 68.3595 13.08C68.5062 13.0267 68.6262 12.9567 68.7195 12.87C68.8128 12.7767 68.8828 12.6733 68.9295 12.56C68.9762 12.44 68.9995 12.32 68.9995 12.2C68.9995 12.0133 68.9628 11.85 68.8895 11.71C68.8162 11.57 68.7095 11.45 68.5695 11.35C68.4362 11.2433 68.2762 11.1533 68.0895 11.08C67.9028 11 67.6962 10.93 67.4695 10.87C67.2295 11.0233 67.0362 11.21 66.8895 11.43C66.7428 11.6433 66.6695 11.9 66.6695 12.2ZM68.8495 8.78C68.8495 8.69333 68.8295 8.6 68.7895 8.5C68.7562 8.39333 68.6962 8.29667 68.6095 8.21C68.5295 8.12333 68.4262 8.05 68.2995 7.99C68.1728 7.93 68.0195 7.9 67.8395 7.9C67.6595 7.9 67.5028 7.93 67.3695 7.99C67.2428 8.04333 67.1395 8.11667 67.0595 8.21C66.9795 8.29667 66.9195 8.39333 66.8795 8.5C66.8395 8.6 66.8195 8.7 66.8195 8.8C66.8195 9.05333 66.9128 9.29333 67.0995 9.52C67.2928 9.74667 67.6128 9.92667 68.0595 10.06C68.3062 9.90667 68.4995 9.73333 68.6395 9.54C68.7795 9.34 68.8495 9.08667 68.8495 8.78ZM78.4471 14C78.3538 13.7267 78.2571 13.4567 78.1571 13.19C78.0571 12.9233 77.9604 12.65 77.8671 12.37H74.9471C74.8538 12.65 74.7571 12.9267 74.6571 13.2C74.5638 13.4667 74.4704 13.7333 74.3771 14H73.0671C73.3271 13.26 73.5738 12.5767 73.8071 11.95C74.0404 11.3233 74.2671 10.73 74.4871 10.17C74.7138 9.61 74.9371 9.07667 75.1571 8.57C75.3771 8.06333 75.6038 7.56333 75.8371 7.07H77.0271C77.2604 7.56333 77.4871 8.06333 77.7071 8.57C77.9271 9.07667 78.1471 9.61 78.3671 10.17C78.5938 10.73 78.8238 11.3233 79.0571 11.95C79.2971 12.5767 79.5471 13.26 79.8071 14H78.4471ZM76.4071 8.41C76.2538 8.76333 76.0771 9.19333 75.8771 9.7C75.6838 10.2067 75.4804 10.7567 75.2671 11.35H77.5471C77.3338 10.7567 77.1271 10.2033 76.9271 9.69C76.7271 9.17667 76.5538 8.75 76.4071 8.41ZM84.093 11.41C84.093 10.87 83.9697 10.45 83.723 10.15C83.483 9.85 83.093 9.7 82.553 9.7C82.4397 9.7 82.3197 9.70667 82.193 9.72C82.073 9.72667 81.953 9.74667 81.833 9.78V12.77C81.9397 12.8433 82.0797 12.9133 82.253 12.98C82.433 13.04 82.623 13.07 82.823 13.07C83.263 13.07 83.583 12.92 83.783 12.62C83.9897 12.32 84.093 11.9167 84.093 11.41ZM85.333 11.39C85.333 11.79 85.2797 12.1567 85.173 12.49C85.073 12.8233 84.9264 13.11 84.733 13.35C84.5397 13.59 84.2964 13.7767 84.003 13.91C83.7164 14.0433 83.3897 14.11 83.023 14.11C82.7764 14.11 82.5497 14.08 82.343 14.02C82.1364 13.96 81.9664 13.8933 81.833 13.82V15.85H80.623V8.94C80.8697 8.87333 81.173 8.81 81.533 8.75C81.893 8.69 82.273 8.66 82.673 8.66C83.0864 8.66 83.4564 8.72333 83.783 8.85C84.1097 8.97667 84.3864 9.16 84.613 9.4C84.8464 9.63333 85.023 9.92 85.143 10.26C85.2697 10.5933 85.333 10.97 85.333 11.39ZM89.5601 9.86C89.4601 9.82667 89.3201 9.79333 89.1401 9.76C88.9667 9.72 88.7634 9.7 88.5301 9.7C88.3967 9.7 88.2534 9.71333 88.1001 9.74C87.9534 9.76667 87.8501 9.79 87.7901 9.81V14H86.5801V9.02C86.8134 8.93333 87.1034 8.85333 87.4501 8.78C87.8034 8.7 88.1934 8.66 88.6201 8.66C88.7001 8.66 88.7934 8.66667 88.9001 8.68C89.0067 8.68667 89.1134 8.7 89.2201 8.72C89.3267 8.73333 89.4301 8.75333 89.5301 8.78C89.6301 8.8 89.7101 8.82 89.7701 8.84L89.5601 9.86ZM91.375 12.67C91.3883 12.7833 91.395 12.8667 91.395 12.92C91.395 12.9733 91.395 13.0267 91.395 13.08C91.395 13.4933 91.3283 13.92 91.195 14.36C91.0683 14.8 90.8883 15.2167 90.655 15.61L89.705 15.35C89.865 14.9633 89.9716 14.5833 90.025 14.21C90.085 13.8433 90.115 13.52 90.115 13.24C90.115 13.16 90.1116 13.06 90.105 12.94C90.105 12.82 90.1016 12.73 90.095 12.67H91.375ZM99.1747 8.87C99.1747 9.11 99.1247 9.34667 99.0247 9.58C98.9247 9.80667 98.7947 10.03 98.6347 10.25C98.4814 10.4633 98.3047 10.6733 98.1047 10.88C97.9047 11.08 97.7047 11.2767 97.5047 11.47C97.3981 11.57 97.2781 11.69 97.1447 11.83C97.0114 11.97 96.8847 12.11 96.7647 12.25C96.6447 12.39 96.5414 12.5267 96.4547 12.66C96.3681 12.7867 96.3214 12.8933 96.3147 12.98H99.3947V14H94.9847C94.9781 13.9467 94.9747 13.8833 94.9747 13.81C94.9747 13.73 94.9747 13.67 94.9747 13.63C94.9747 13.31 95.0247 13.0167 95.1247 12.75C95.2314 12.4767 95.3681 12.2233 95.5347 11.99C95.7014 11.7567 95.8881 11.5367 96.0947 11.33C96.3014 11.1233 96.5081 10.92 96.7147 10.72C96.8747 10.5667 97.0281 10.4167 97.1747 10.27C97.3214 10.1233 97.4481 9.98 97.5547 9.84C97.6681 9.69333 97.7581 9.54667 97.8247 9.4C97.8914 9.24667 97.9247 9.09 97.9247 8.93C97.9247 8.58333 97.8247 8.33667 97.6247 8.19C97.4247 8.04333 97.1814 7.97 96.8947 7.97C96.7081 7.97 96.5347 7.99667 96.3747 8.05C96.2147 8.10333 96.0714 8.16667 95.9447 8.24C95.8247 8.31333 95.7181 8.39 95.6247 8.47C95.5314 8.54333 95.4614 8.60333 95.4147 8.65L94.8147 7.8C95.0947 7.53333 95.4214 7.32 95.7947 7.16C96.1747 6.99333 96.5814 6.91 97.0147 6.91C97.7547 6.91 98.2981 7.08667 98.6447 7.44C98.9981 7.78667 99.1747 8.26333 99.1747 8.87ZM105.298 10.53C105.298 11.6967 105.085 12.5933 104.658 13.22C104.232 13.84 103.642 14.15 102.888 14.15C102.135 14.15 101.545 13.84 101.118 13.22C100.692 12.5933 100.478 11.6967 100.478 10.53C100.478 9.95 100.532 9.43667 100.638 8.99C100.752 8.53667 100.912 8.15667 101.118 7.85C101.332 7.54333 101.585 7.31 101.878 7.15C102.178 6.99 102.515 6.91 102.888 6.91C103.642 6.91 104.232 7.22333 104.658 7.85C105.085 8.47 105.298 9.36333 105.298 10.53ZM104.048 10.53C104.048 10.17 104.028 9.83333 103.988 9.52C103.948 9.20667 103.882 8.93667 103.788 8.71C103.702 8.47667 103.585 8.29333 103.438 8.16C103.292 8.02667 103.108 7.96 102.888 7.96C102.668 7.96 102.482 8.02667 102.328 8.16C102.182 8.29333 102.062 8.47667 101.968 8.71C101.882 8.93667 101.818 9.20667 101.778 9.52C101.745 9.83333 101.728 10.17 101.728 10.53C101.728 10.89 101.745 11.2267 101.778 11.54C101.818 11.8533 101.882 12.1267 101.968 12.36C102.062 12.5867 102.182 12.7667 102.328 12.9C102.482 13.0333 102.668 13.1 102.888 13.1C103.108 13.1 103.292 13.0333 103.438 12.9C103.585 12.7667 103.702 12.5867 103.788 12.36C103.882 12.1267 103.948 11.8533 103.988 11.54C104.028 11.2267 104.048 10.89 104.048 10.53ZM110.542 8.87C110.542 9.11 110.492 9.34667 110.392 9.58C110.292 9.80667 110.162 10.03 110.002 10.25C109.849 10.4633 109.672 10.6733 109.472 10.88C109.272 11.08 109.072 11.2767 108.872 11.47C108.765 11.57 108.645 11.69 108.512 11.83C108.379 11.97 108.252 12.11 108.132 12.25C108.012 12.39 107.909 12.5267 107.822 12.66C107.735 12.7867 107.689 12.8933 107.682 12.98H110.762V14H106.352C106.345 13.9467 106.342 13.8833 106.342 13.81C106.342 13.73 106.342 13.67 106.342 13.63C106.342 13.31 106.392 13.0167 106.492 12.75C106.599 12.4767 106.735 12.2233 106.902 11.99C107.069 11.7567 107.255 11.5367 107.462 11.33C107.669 11.1233 107.875 10.92 108.082 10.72C108.242 10.5667 108.395 10.4167 108.542 10.27C108.689 10.1233 108.815 9.98 108.922 9.84C109.035 9.69333 109.125 9.54667 109.192 9.4C109.259 9.24667 109.292 9.09 109.292 8.93C109.292 8.58333 109.192 8.33667 108.992 8.19C108.792 8.04333 108.549 7.97 108.262 7.97C108.075 7.97 107.902 7.99667 107.742 8.05C107.582 8.10333 107.439 8.16667 107.312 8.24C107.192 8.31333 107.085 8.39 106.992 8.47C106.899 8.54333 106.829 8.60333 106.782 8.65L106.182 7.8C106.462 7.53333 106.789 7.32 107.162 7.16C107.542 6.99333 107.949 6.91 108.382 6.91C109.122 6.91 109.665 7.08667 110.012 7.44C110.365 7.78667 110.542 8.26333 110.542 8.87ZM113.776 14.15C113.596 14.15 113.409 14.1367 113.216 14.11C113.029 14.09 112.849 14.06 112.676 14.02C112.509 13.9867 112.356 13.95 112.216 13.91C112.076 13.8633 111.969 13.82 111.896 13.78L112.136 12.75C112.276 12.8167 112.479 12.8933 112.746 12.98C113.012 13.06 113.342 13.1 113.736 13.1C114.262 13.1 114.642 13 114.876 12.8C115.109 12.5933 115.226 12.32 115.226 11.98C115.226 11.76 115.179 11.5767 115.086 11.43C114.999 11.2833 114.876 11.1667 114.716 11.08C114.562 10.9867 114.382 10.9233 114.176 10.89C113.976 10.85 113.762 10.83 113.536 10.83H113.126V9.85H113.626C113.779 9.85 113.932 9.83667 114.086 9.81C114.246 9.77667 114.389 9.72333 114.516 9.65C114.642 9.57 114.746 9.46667 114.826 9.34C114.906 9.21333 114.946 9.05 114.946 8.85C114.946 8.69 114.916 8.55333 114.856 8.44C114.796 8.32667 114.716 8.23333 114.616 8.16C114.522 8.08667 114.412 8.03333 114.286 8C114.159 7.96667 114.026 7.95 113.886 7.95C113.586 7.95 113.319 7.99667 113.086 8.09C112.852 8.17667 112.646 8.27667 112.466 8.39L112.026 7.49C112.119 7.43 112.232 7.36667 112.366 7.3C112.499 7.23333 112.646 7.17 112.806 7.11C112.972 7.05 113.149 7.00333 113.336 6.97C113.522 6.93 113.719 6.91 113.926 6.91C114.312 6.91 114.646 6.95667 114.926 7.05C115.206 7.14333 115.436 7.27667 115.616 7.45C115.802 7.61667 115.939 7.81667 116.026 8.05C116.119 8.27667 116.166 8.52667 116.166 8.8C116.166 9.12 116.076 9.40667 115.896 9.66C115.722 9.91333 115.496 10.1067 115.216 10.24C115.576 10.3667 115.872 10.5767 116.106 10.87C116.346 11.1633 116.466 11.54 116.466 12C116.466 12.3067 116.412 12.5933 116.306 12.86C116.199 13.12 116.036 13.3467 115.816 13.54C115.596 13.7267 115.316 13.8767 114.976 13.99C114.642 14.0967 114.242 14.15 113.776 14.15Z" fill="white"/>
<path d="M4.56906e-06 11.3491C-0.000616288 11.0016 0.0672643 10.6573 0.199765 10.3361C0.332266 10.0148 0.526788 9.72278 0.772212 9.47674L5.0934 5.15555C5.193 5.05595 5.32808 5 5.46893 5C5.60978 5 5.74486 5.05595 5.84445 5.15555C5.94405 5.25514 6 5.39022 6 5.53107C6 5.67192 5.94405 5.807 5.84445 5.9066L1.52326 10.2278C1.22612 10.5253 1.05922 10.9286 1.05922 11.3491C1.05922 11.7696 1.22612 12.1729 1.52326 12.4704L5.84445 16.7916C5.94405 16.8911 6 17.0262 6 17.1671C6 17.3079 5.94405 17.443 5.84445 17.5426C5.74486 17.6422 5.60978 17.6982 5.46893 17.6982C5.32808 17.6982 5.193 17.6422 5.0934 17.5426L0.772212 13.2214C0.526788 12.9754 0.332266 12.6834 0.199765 12.3621C0.0672644 12.0408 -0.000616258 11.6966 4.56906e-06 11.3491Z" fill="#E0E0E0"/>
<path d="M134.253 11.3491C134.254 11.0016 134.186 10.6573 134.054 10.3361C133.921 10.0148 133.727 9.72278 133.481 9.47674L129.16 5.15555C129.06 5.05595 128.925 5 128.784 5C128.644 5 128.509 5.05595 128.409 5.15555C128.309 5.25514 128.253 5.39022 128.253 5.53107C128.253 5.67192 128.309 5.807 128.409 5.9066L132.73 10.2278C133.027 10.5253 133.194 10.9286 133.194 11.3491C133.194 11.7696 133.027 12.1729 132.73 12.4704L128.409 16.7916C128.309 16.8911 128.253 17.0262 128.253 17.1671C128.253 17.3079 128.309 17.443 128.409 17.5426C128.509 17.6422 128.644 17.6982 128.784 17.6982C128.925 17.6982 129.06 17.6422 129.16 17.5426L133.481 13.2214C133.727 12.9754 133.921 12.6834 134.054 12.3621C134.186 12.0408 134.254 11.6966 134.253 11.3491Z" fill="#E0E0E0"/>
<defs>
<clipPath id="clip0_300_1221">
<rect width="14" height="14" fill="white" transform="translate(18.1265 3)"/>
</clipPath>
</defs>
</svg>
