<svg width="15" height="15" viewBox="0 0 15 15" fill="none" xmlns="http://www.w3.org/2000/svg">
<g clip-path="url(#clip0_230_2137)">
<path d="M13.8164 0.635986C13.1748 -0.00561525 12.1377 -0.00561525 11.4961 0.635986L10.6143 1.51489L13.4824 4.38306L14.3643 3.50122C15.0059 2.85962 15.0059 1.82251 14.3643 1.18091L13.8164 0.635986ZM5.05078 7.0813C4.87207 7.26001 4.73438 7.47974 4.65527 7.7229L3.78809 10.3245C3.70313 10.5764 3.77051 10.8547 3.95801 11.0452C4.14551 11.2356 4.42383 11.3 4.67871 11.2151L7.28027 10.3479C7.52051 10.2688 7.74023 10.1311 7.92188 9.95239L12.8232 5.0481L9.95215 2.177L5.05078 7.0813ZM2.8125 1.87524C1.25977 1.87524 0 3.13501 0 4.68774V12.1877C0 13.7405 1.25977 15.0002 2.8125 15.0002H10.3125C11.8652 15.0002 13.125 13.7405 13.125 12.1877V9.37524C13.125 8.85669 12.7061 8.43774 12.1875 8.43774C11.6689 8.43774 11.25 8.85669 11.25 9.37524V12.1877C11.25 12.7063 10.8311 13.1252 10.3125 13.1252H2.8125C2.29395 13.1252 1.875 12.7063 1.875 12.1877V4.68774C1.875 4.16919 2.29395 3.75024 2.8125 3.75024H5.625C6.14356 3.75024 6.5625 3.3313 6.5625 2.81274C6.5625 2.29419 6.14356 1.87524 5.625 1.87524H2.8125Z" fill="#F79300"/>
</g>
<defs>
<clipPath id="clip0_230_2137">
<rect width="15" height="15" fill="white"/>
</clipPath>
</defs>
</svg>
