<svg width="13" height="13" viewBox="0 0 13 13" fill="none" xmlns="http://www.w3.org/2000/svg">
<g clip-path="url(#clip0_230_2196)">
<path d="M9.20918 0.490562C9.84395 -0.144152 10.8748 -0.144152 11.5096 0.490562L12.51 1.49171C13.1447 2.12623 13.1447 3.15607 12.51 3.79084L11.2811 5.01974L7.98027 1.71947L9.20918 0.490562ZM10.7072 5.59357L4.78613 11.5121C4.52207 11.7762 4.19453 11.9717 3.83652 12.0758L0.781264 12.9746C0.567475 13.0381 0.336166 12.9797 0.17849 12.7994C0.0208095 12.6649 -0.0381425 12.4338 0.0247755 12.218L0.923452 9.16349C1.02908 8.80548 1.22281 8.47795 1.48712 8.21388L7.40644 2.2938L10.7072 5.59357Z" fill="white"/>
</g>
<defs>
<clipPath id="clip0_230_2196">
<rect width="13" height="13" fill="white"/>
</clipPath>
</defs>
</svg>
