<svg width="16" height="15" viewBox="0 0 16 15" fill="none" xmlns="http://www.w3.org/2000/svg">
<path d="M7.99998 0.9375C5.75553 0.9375 3.95831 2.01562 2.64998 3.29883C1.34998 4.57031 0.480532 6.09375 0.0694214 7.13965C-0.0222453 7.37109 -0.0222453 7.62891 0.0694214 7.86035C0.480532 8.90625 1.34998 10.4297 2.64998 11.7012C3.95831 12.9844 5.75553 14.0625 7.99998 14.0625C10.2444 14.0625 12.0416 12.9844 13.35 11.7012C14.65 10.4268 15.5194 8.90625 15.9333 7.86035C16.025 7.62891 16.025 7.37109 15.9333 7.13965C15.5194 6.09375 14.65 4.57031 13.35 3.29883C12.0416 2.01562 10.2444 0.9375 7.99998 0.9375ZM3.99998 7.5C3.99998 6.38112 4.4214 5.30806 5.17155 4.51689C5.9217 3.72572 6.93911 3.28125 7.99998 3.28125C9.06084 3.28125 10.0783 3.72572 10.8284 4.51689C11.5785 5.30806 12 6.38112 12 7.5C12 8.61888 11.5785 9.69194 10.8284 10.4831C10.0783 11.2743 9.06084 11.7188 7.99998 11.7188C6.93911 11.7188 5.9217 11.2743 5.17155 10.4831C4.4214 9.69194 3.99998 8.61888 3.99998 7.5ZM7.99998 5.625C7.99998 6.65918 7.20275 7.5 6.2222 7.5C6.02498 7.5 5.83609 7.46484 5.65831 7.40332C5.50553 7.35059 5.32775 7.4502 5.33331 7.62012C5.34164 7.82227 5.36942 8.02441 5.4222 8.22656C5.80275 9.72656 7.26664 10.6172 8.68887 10.2158C10.1111 9.81445 10.9555 8.27051 10.575 6.77051C10.2666 5.55469 9.2472 4.7373 8.11387 4.6875C7.95275 4.68164 7.85831 4.86621 7.90831 5.03027C7.96664 5.21777 7.99998 5.41699 7.99998 5.625Z" fill="white"/>
</svg>
