<svg width="22" height="22" viewBox="0 0 22 22" fill="none" xmlns="http://www.w3.org/2000/svg">
<path d="M0 3.07355C0 2.13555 0.760547 1.375 1.69855 1.375H20.3027C21.2395 1.375 22 2.13555 22 3.07355C22 3.46887 21.8625 3.85172 21.609 4.15637L13.75 13.6555V19.1684C13.75 19.9719 13.0969 20.625 12.2934 20.625C11.9711 20.625 11.6574 20.5176 11.3996 20.3199L8.78281 18.2789C8.44766 18.0211 8.25 17.6215 8.25 17.1961V13.6555L0.389984 4.15637C0.13793 3.85172 0 3.46887 0 3.07355ZM1.69855 2.75C1.5198 2.75 1.375 2.8948 1.375 3.07355C1.375 3.14875 1.40121 3.2218 1.44934 3.2798L9.46602 12.968C9.56914 13.0926 9.625 13.2473 9.625 13.4062V17.1961L12.2074 19.2328C12.259 19.2457 12.2762 19.25 12.2934 19.25C12.3406 19.25 12.375 19.2156 12.375 19.1684V13.4062C12.375 13.2473 12.4309 13.0926 12.534 12.968L20.552 3.2798C20.5992 3.2218 20.625 3.14875 20.625 3.07355C20.625 2.8948 20.4789 2.75 20.3027 2.75H1.69855Z" fill="#BDBDBD"/>
</svg>
