<svg width="18" height="18" viewBox="0 0 18 18" fill="none" xmlns="http://www.w3.org/2000/svg">
<g clip-path="url(#clip0_1468_53)">
<path d="M0 2.25C0 1.00898 1.00898 0 2.25 0H15.75C16.991 0 18 1.00898 18 2.25V12.375C18 13.616 16.991 14.625 15.75 14.625H10.8738L6.525 17.8875C6.35625 18.0141 6.12773 18.0352 5.93438 17.9402C5.74102 17.8453 5.625 17.652 5.625 17.4375V14.625H2.25C1.00898 14.625 0 13.616 0 12.375V2.25ZM5.34375 5.0625C4.87617 5.0625 4.5 5.43867 4.5 5.90625C4.5 6.37383 4.87617 6.75 5.34375 6.75H12.6562C13.1238 6.75 13.5 6.37383 13.5 5.90625C13.5 5.43867 13.1238 5.0625 12.6562 5.0625H5.34375ZM5.34375 8.4375C4.87617 8.4375 4.5 8.81367 4.5 9.28125C4.5 9.74883 4.87617 10.125 5.34375 10.125H9.28125C9.74883 10.125 10.125 9.74883 10.125 9.28125C10.125 8.81367 9.74883 8.4375 9.28125 8.4375H5.34375Z" fill="white"/>
</g>
<defs>
<clipPath id="clip0_1468_53">
<rect width="18" height="18" fill="white"/>
</clipPath>
</defs>
</svg>
