<svg width="13" height="13" viewBox="0 0 13 13" fill="none" xmlns="http://www.w3.org/2000/svg">
<g clip-path="url(#clip0_367_161)">
<path d="M12.99 0.93621L11.365 11.4759C11.3269 11.723 11.1777 11.9385 10.9595 12.0611C10.8365 12.1302 10.6987 12.1651 10.5614 12.1651C10.455 12.1651 10.3501 12.1444 10.2493 12.1024L7.13643 10.8049L5.84507 12.742C5.74604 12.9114 5.581 13.0003 5.40327 13.0003C5.11128 13.0003 4.87514 12.7642 4.87514 12.4722V10.0301C4.87514 9.84946 4.93537 9.67389 5.04633 9.53145L10.5626 2.43781L3.10542 9.14855L0.500085 8.06184C0.21439 7.9425 0.0207736 7.67336 0.00173058 7.34074C-0.0173124 7.00812 0.140592 6.73848 0.409504 6.58486L11.7845 0.107714C12.0559 -0.0473976 12.3908 -0.0331281 12.6478 0.143413C12.9047 0.319954 13.0382 0.627968 12.99 0.93621Z" fill="white"/>
</g>
<defs>
<clipPath id="clip0_367_161">
<rect width="13" height="13" fill="white"/>
</clipPath>
</defs>
</svg>
