<svg width="23" height="18" viewBox="0 0 23 18" fill="none" xmlns="http://www.w3.org/2000/svg">
<g clip-path="url(#clip0_375_274)">
<path d="M3.45 2.8125C3.45 2.36495 3.63174 1.93572 3.95524 1.61926C4.27874 1.30279 4.7175 1.125 5.175 1.125C5.6325 1.125 6.07126 1.30279 6.39476 1.61926C6.71826 1.93572 6.9 2.36495 6.9 2.8125C6.9 3.26005 6.71826 3.68928 6.39476 4.00574C6.07126 4.32221 5.6325 4.5 5.175 4.5C4.7175 4.5 4.27874 4.32221 3.95524 4.00574C3.63174 3.68928 3.45 3.26005 3.45 2.8125ZM8.05 2.8125C8.05 2.06658 7.7471 1.35121 7.20793 0.823762C6.66876 0.296316 5.9375 0 5.175 0C4.4125 0 3.68124 0.296316 3.14207 0.823762C2.6029 1.35121 2.3 2.06658 2.3 2.8125C2.3 3.55842 2.6029 4.27379 3.14207 4.80124C3.68124 5.32868 4.4125 5.625 5.175 5.625C5.9375 5.625 6.66876 5.32868 7.20793 4.80124C7.7471 4.27379 8.05 3.55842 8.05 2.8125ZM11.5 5.625C12.11 5.625 12.695 5.86205 13.1263 6.28401C13.5577 6.70597 13.8 7.27826 13.8 7.875C13.8 8.47174 13.5577 9.04403 13.1263 9.46599C12.695 9.88795 12.11 10.125 11.5 10.125C10.89 10.125 10.305 9.88795 9.87365 9.46599C9.44232 9.04403 9.2 8.47174 9.2 7.875C9.2 7.27826 9.44232 6.70597 9.87365 6.28401C10.305 5.86205 10.89 5.625 11.5 5.625ZM11.5 11.25C11.9531 11.25 12.4017 11.1627 12.8203 10.9931C13.2388 10.8235 13.6192 10.5749 13.9395 10.2615C14.2599 9.94809 14.514 9.57603 14.6874 9.16656C14.8608 8.75708 14.95 8.31821 14.95 7.875C14.95 7.43179 14.8608 6.99292 14.6874 6.58344C14.514 6.17397 14.2599 5.80191 13.9395 5.48851C13.6192 5.17512 13.2388 4.92652 12.8203 4.75691C12.4017 4.5873 11.9531 4.5 11.5 4.5C11.0469 4.5 10.5983 4.5873 10.1797 4.75691C9.76117 4.92652 9.38084 5.17512 9.06048 5.48851C8.74012 5.80191 8.48599 6.17397 8.31262 6.58344C8.13924 6.99292 8.05 7.43179 8.05 7.875C8.05 8.31821 8.13924 8.75708 8.31262 9.16656C8.48599 9.57603 8.74012 9.94809 9.06048 10.2615C9.38084 10.5749 9.76117 10.8235 10.1797 10.9931C10.5983 11.1627 11.0469 11.25 11.5 11.25ZM9.39047 13.5H13.6095C15.5573 13.5 17.1458 14.9941 17.2464 16.875H5.75359C5.85422 14.9941 7.44266 13.5 9.39047 13.5ZM9.39047 12.375C6.74547 12.375 4.6 14.4738 4.6 17.0613C4.6 17.5781 5.02766 18 5.55953 18H17.4405C17.9688 18 18.4 17.5816 18.4 17.0613C18.4 14.4738 16.2545 12.375 13.6095 12.375H9.39047ZM18.4 1.125C18.8575 1.125 19.2963 1.30279 19.6198 1.61926C19.9433 1.93572 20.125 2.36495 20.125 2.8125C20.125 3.26005 19.9433 3.68928 19.6198 4.00574C19.2963 4.32221 18.8575 4.5 18.4 4.5C17.9425 4.5 17.5037 4.32221 17.1802 4.00574C16.8567 3.68928 16.675 3.26005 16.675 2.8125C16.675 2.36495 16.8567 1.93572 17.1802 1.61926C17.5037 1.30279 17.9425 1.125 18.4 1.125ZM18.4 5.625C19.1625 5.625 19.8938 5.32868 20.4329 4.80124C20.9721 4.27379 21.275 3.55842 21.275 2.8125C21.275 2.06658 20.9721 1.35121 20.4329 0.823762C19.8938 0.296316 19.1625 0 18.4 0C17.6375 0 16.9062 0.296316 16.3671 0.823762C15.8279 1.35121 15.525 2.06658 15.525 2.8125C15.525 3.55842 15.8279 4.27379 16.3671 4.80124C16.9062 5.32868 17.6375 5.625 18.4 5.625ZM18.975 7.875C20.5634 7.875 21.85 9.13359 21.85 10.6875C21.85 10.9969 22.1087 11.25 22.425 11.25C22.7412 11.25 23 10.9969 23 10.6875C23 8.51133 21.1995 6.75 18.975 6.75H15.9562C16.0497 7.10859 16.1 7.48828 16.1 7.875H18.975ZM6.9 7.875C6.9 7.48828 6.95031 7.10859 7.04375 6.75H4.025C1.80047 6.75 0 8.51133 0 10.6875C0 10.9969 0.25875 11.25 0.575 11.25C0.89125 11.25 1.15 10.9969 1.15 10.6875C1.15 9.13359 2.43656 7.875 4.025 7.875H6.9Z" fill="white"/>
</g>
<defs>
<clipPath id="clip0_375_274">
<rect width="23" height="18" fill="white"/>
</clipPath>
</defs>
</svg>
