<svg width="8" height="8" viewBox="0 0 8 8" fill="none" xmlns="http://www.w3.org/2000/svg">
<g clip-path="url(#clip0_1040_2580)">
<path d="M7.21095 0.423828C6.78321 -0.00390625 6.09181 -0.00390625 5.66407 0.423828L5.07618 1.00977L6.98829 2.92188L7.57618 2.33398C8.00391 1.90625 8.00391 1.21484 7.57618 0.787109L7.21095 0.423828ZM1.3672 4.7207C1.24806 4.83984 1.15626 4.98633 1.10352 5.14844L0.525399 6.88281C0.468759 7.05078 0.513681 7.23633 0.638681 7.36328C0.763681 7.49023 0.949227 7.5332 1.11915 7.47656L2.85352 6.89844C3.01368 6.8457 3.16017 6.75391 3.28126 6.63477L6.54884 3.36523L4.63477 1.45117L1.3672 4.7207Z" fill="#F79300"/>
</g>
<defs>
<clipPath id="clip0_1040_2580">
<rect width="8" height="8" fill="white"/>
</clipPath>
</defs>
</svg>
