<svg width="19" height="21" viewBox="0 0 19 21" fill="none" xmlns="http://www.w3.org/2000/svg">
<path d="M18.3214 10.5C18.3214 11.2256 17.7137 11.8129 16.9643 11.8129H10.8572V17.7192C10.8572 18.4447 10.2494 19.0312 9.50002 19.0312C8.75062 19.0312 8.14287 18.4447 8.14287 17.7192V11.8129H2.03573C1.28633 11.8129 0.678589 11.2256 0.678589 10.5C0.678589 9.77443 1.28633 9.18791 2.03573 9.18791H8.14287V3.28166C8.14287 2.55609 8.75062 1.96875 9.50002 1.96875C10.2494 1.96875 10.8572 2.55609 10.8572 3.28166V9.18791H16.9643C17.715 9.1875 18.3214 9.77402 18.3214 10.5Z" fill="#16CC66"/>
</svg>
